<?xml version="1.0" encoding="UTF-8" standalone="no"?>
<svg width="100px" height="200px" viewBox="0 0 100 200" xmlns="http://www.w3.org/2000/svg">
  <!-- Plant stem -->
  <path d="M50,200 C50,150 50,100 50,50" stroke="#4a8f29" stroke-width="5" fill="none"/>
  
  <!-- Leaves -->
  <path d="M50,150 C30,140 10,145 10,160 C10,175 30,180 50,170" fill="#6abe30" stroke="#4a8f29" stroke-width="1"/>
  <path d="M50,150 C70,140 90,145 90,160 C90,175 70,180 50,170" fill="#6abe30" stroke="#4a8f29" stroke-width="1"/>
  
  <path d="M50,120 C30,110 10,115 5,130 C0,145 20,150 50,140" fill="#6abe30" stroke="#4a8f29" stroke-width="1"/>
  <path d="M50,120 C70,110 90,115 95,130 C100,145 80,150 50,140" fill="#6abe30" stroke="#4a8f29" stroke-width="1"/>
  
  <path d="M50,80 C35,70 20,75 15,85 C10,100 30,105 50,95" fill="#6abe30" stroke="#4a8f29" stroke-width="1"/>
  <path d="M50,80 C65,70 80,75 85,85 C90,100 70,105 50,95" fill="#6abe30" stroke="#4a8f29" stroke-width="1"/>
  
  <!-- Top leaf/shoot -->
  <ellipse cx="50" cy="45" rx="15" ry="25" fill="#6abe30" stroke="#4a8f29" stroke-width="1"/>
</svg>
